<svg width="34" height="30" viewBox="0 0 34 30" fill="none" xmlns="http://www.w3.org/2000/svg">
<path d="M28.7585 10.1839L28.3883 10.9924C28.3304 11.1241 28.2328 11.2365 28.1077 11.3156C27.9826 11.3947 27.8357 11.437 27.6854 11.437C27.5351 11.437 27.3881 11.3947 27.263 11.3156C27.138 11.2365 27.0403 11.1241 26.9825 10.9924L26.6122 10.1839C25.9612 8.75355 24.769 7.60675 23.2709 6.96975L22.1285 6.48549C21.9899 6.42499 21.8725 6.32803 21.7902 6.20612C21.7079 6.08421 21.6641 5.94246 21.6641 5.79767C21.6641 5.65288 21.7079 5.51113 21.7902 5.38922C21.8725 5.26731 21.9899 5.17036 22.1285 5.10985L23.2076 4.65416C24.7435 3.99902 25.9561 2.8098 26.5957 1.33148L26.9765 0.458664C27.0324 0.323462 27.1299 0.207388 27.2564 0.125574C27.3828 0.0437594 27.5323 0 27.6854 0C27.8384 0 27.9879 0.0437594 28.1143 0.125574C28.2408 0.207388 28.3383 0.323462 28.3943 0.458664L28.7751 1.33005C29.414 2.80865 30.626 3.99838 32.1616 4.65416L33.2423 5.11128C33.3804 5.17196 33.4974 5.2689 33.5794 5.39066C33.6614 5.51241 33.705 5.65389 33.705 5.79839C33.705 5.94288 33.6614 6.08436 33.5794 6.20612C33.4974 6.32787 33.3804 6.42481 33.2423 6.48549L32.0984 6.96832C30.6005 7.60596 29.4088 8.75327 28.7585 10.1839ZM27.6854 14.2865C28.6938 14.2865 29.6616 14.1294 30.5677 13.8408C30.653 14.4551 30.6956 15.0798 30.6956 15.715C30.6956 23.6046 23.9572 30 15.6444 30C13.1721 30.0033 10.7373 29.4262 8.55685 28.3201L0.593277 30L2.36329 22.4418C1.19786 20.3724 0.589804 18.0615 0.593277 15.715C0.593277 7.82542 7.33168 1.43004 15.6444 1.43004C17.0081 1.43004 18.3281 1.60146 19.5833 1.9243C18.9042 3.23124 18.5873 4.68095 18.6627 6.13645C18.7381 7.59194 19.2033 9.00516 20.0143 10.2426C20.8252 11.48 21.9552 12.5007 23.2975 13.2083C24.6398 13.9159 26.1499 14.287 27.6854 14.2865ZM8.11886 15.715C8.11886 17.6093 8.91173 19.426 10.323 20.7655C11.7344 22.105 13.6485 22.8575 15.6444 22.8575C17.6403 22.8575 19.5545 22.105 20.9658 20.7655C22.3771 19.426 23.17 17.6093 23.17 15.715H20.1598C20.1598 16.8516 19.6841 17.9416 18.8373 18.7453C17.9905 19.549 16.842 20.0005 15.6444 20.0005C14.4469 20.0005 13.2984 19.549 12.4516 18.7453C11.6048 17.9416 11.1291 16.8516 11.1291 15.715H8.11886Z" fill="#0090FB"/>
</svg>
