<svg width="36" height="36" viewBox="0 0 36 36" fill="none" xmlns="http://www.w3.org/2000/svg">
<path fill-rule="evenodd" clip-rule="evenodd" d="M11.0251 5.00493C11.5046 4.93939 11.9403 4.69095 12.2408 4.3116C12.5414 3.93225 12.6836 3.45137 12.6378 2.96956C12.5919 2.48775 12.3615 2.04233 11.9948 1.72649C11.6281 1.41064 11.1534 1.24884 10.6701 1.27493C8.97511 1.43993 7.32012 1.63993 5.73512 1.84993C4.77993 1.97485 3.89322 2.41329 3.21409 3.0965C2.53496 3.7797 2.10182 4.66901 1.98262 5.62493C1.7743 7.24952 1.59095 8.87721 1.43262 10.5074C1.40947 10.7527 1.43486 11.0001 1.50732 11.2355C1.57979 11.4709 1.69792 11.6898 1.85497 11.8796C2.01201 12.0694 2.2049 12.2263 2.42262 12.3416C2.64034 12.4568 2.87862 12.528 3.12387 12.5512C3.36911 12.5743 3.61651 12.5489 3.85194 12.4765C4.08738 12.404 4.30623 12.2859 4.49601 12.1288C4.68579 11.9718 4.84278 11.7789 4.95801 11.5612C5.07325 11.3435 5.14447 11.1052 5.16761 10.8599C5.32012 9.23493 5.50762 7.63493 5.70011 6.09243C5.73512 5.81743 5.95012 5.60243 6.22012 5.56743C7.81916 5.35289 9.42191 5.16702 11.0276 5.00993L11.0251 5.00493ZM34.5651 25.4949C34.6006 25.006 34.4431 24.5227 34.1265 24.1484C33.8099 23.7742 33.3593 23.5388 32.8713 23.4927C32.3833 23.4466 31.8966 23.5935 31.5155 23.9018C31.1345 24.2102 30.8893 24.6555 30.8326 25.1424C30.6801 26.7674 30.4926 28.3674 30.3001 29.9099C30.2845 30.0429 30.2248 30.1668 30.1305 30.262C30.0363 30.3571 29.9129 30.418 29.7801 30.4349C28.2176 30.6399 26.6101 30.8349 24.9726 30.9924C24.7274 31.0161 24.4892 31.0878 24.2717 31.2035C24.0541 31.3192 23.8615 31.4766 23.7048 31.6667C23.5481 31.8568 23.4304 32.0759 23.3584 32.3116C23.2864 32.5472 23.2615 32.7947 23.2851 33.0399C23.3088 33.2852 23.3805 33.5234 23.4962 33.7409C23.6118 33.9584 23.7692 34.151 23.9594 34.3077C24.1495 34.4644 24.3686 34.5821 24.6043 34.6542C24.8399 34.7262 25.0874 34.7511 25.3326 34.7274C26.9808 34.564 28.626 34.3723 30.2676 34.1524C31.2228 34.0275 32.1095 33.5891 32.7886 32.9059C33.4678 32.2227 33.9009 31.3334 34.0201 30.3774C34.2151 28.8124 34.4076 27.1749 34.5651 25.4949ZM23.2851 2.95993C23.3086 2.71463 23.3802 2.47637 23.4959 2.25876C23.6115 2.04116 23.7689 1.84849 23.9591 1.69176C24.1492 1.53504 24.3684 1.41733 24.6041 1.34538C24.8398 1.27343 25.0873 1.24864 25.3326 1.27243C27.0276 1.43743 28.6826 1.63743 30.2676 1.84743C31.2228 1.97235 32.1095 2.41079 32.7886 3.094C33.4678 3.7772 33.9009 4.66651 34.0201 5.62243C34.2151 7.18743 34.4076 8.82493 34.5651 10.5049C34.6006 10.9938 34.4431 11.4772 34.1265 11.8515C33.8099 12.2257 33.3593 12.4611 32.8713 12.5072C32.3833 12.5533 31.8966 12.4064 31.5155 12.098C31.1345 11.7897 30.8893 11.3443 30.8326 10.8574C30.6801 9.23243 30.4926 7.63243 30.3001 6.08993C30.2845 5.95695 30.2248 5.83302 30.1305 5.73789C30.0363 5.64275 29.9129 5.58187 29.7801 5.56493C28.1809 5.35141 26.5782 5.16555 24.9726 5.00743C24.7273 4.98394 24.489 4.91233 24.2714 4.79668C24.0538 4.68104 23.8612 4.52364 23.7044 4.33348C23.5477 4.14332 23.43 3.92413 23.3581 3.68844C23.2861 3.45276 23.2613 3.2052 23.2851 2.95993ZM5.16761 25.1424C5.1212 24.6471 4.87994 24.1906 4.49689 23.8732C4.11385 23.5558 3.62041 23.4035 3.12511 23.4499C2.62982 23.4963 2.17325 23.7376 1.85585 24.1207C1.53844 24.5037 1.3862 24.9971 1.43262 25.4924C1.59262 27.1749 1.78262 28.8124 1.98012 30.3749C2.09817 31.3314 2.53049 32.2216 3.20921 32.9057C3.88794 33.5899 4.77464 34.0293 5.73011 34.1549C7.31762 34.3624 8.97262 34.5624 10.6676 34.7274C10.9129 34.7511 11.1604 34.7262 11.396 34.6542C11.6316 34.5821 11.8507 34.4644 12.0409 34.3077C12.231 34.151 12.3884 33.9584 12.5041 33.7409C12.6198 33.5234 12.6915 33.2852 12.7151 33.0399C12.7388 32.7947 12.7139 32.5472 12.6418 32.3116C12.5698 32.0759 12.4521 31.8568 12.2954 31.6667C12.1387 31.4766 11.9461 31.3192 11.7286 31.2035C11.511 31.0878 11.2729 31.0161 11.0276 30.9924C9.42204 30.8351 7.8193 30.6501 6.22012 30.4374C6.08729 30.4205 5.96394 30.3596 5.86971 30.2645C5.77548 30.1693 5.71578 30.0454 5.70011 29.9124C5.49878 28.3252 5.32126 26.735 5.16761 25.1424ZM17.9526 12.4224H18.0476C20.2476 12.4224 22.6401 12.4224 24.6951 12.7799C25.4037 12.9084 26.0579 13.245 26.5744 13.7468C27.0909 14.2486 27.4463 14.8929 27.5951 15.5974C27.8951 16.9724 27.8951 18.1149 27.8951 20.1974V20.3499C27.8951 22.4299 27.8951 23.5749 27.5951 24.9499C27.4458 25.654 27.0903 26.2978 26.5738 26.7991C26.0574 27.3004 25.4034 27.6366 24.6951 27.7649C22.6401 28.1249 20.2451 28.1249 18.0476 28.1249H17.9526C15.7526 28.1249 13.3626 28.1249 11.3051 27.7649C10.5965 27.6365 9.9423 27.2999 9.42581 26.7981C8.90931 26.2963 8.55398 25.652 8.40512 24.9474C8.10512 23.5724 8.10512 22.4299 8.10762 20.3499V20.1949C8.10762 18.1149 8.10762 16.9699 8.40512 15.5974C8.55398 14.8929 8.90931 14.2486 9.42581 13.7468C9.9423 13.245 10.5965 12.9084 11.3051 12.7799C13.3626 12.4224 15.7526 12.4224 17.9526 12.4224Z" fill="#8FBFFA"/>
<path fill-rule="evenodd" clip-rule="evenodd" d="M21.2829 8.22195C21.2829 9.57695 20.7904 10.5495 19.8754 11.072V12.427C19.2604 12.4195 18.6454 12.4195 18.0504 12.4195H17.9504C17.3504 12.4195 16.742 12.422 16.1254 12.427V11.0695C15.2079 10.552 14.7154 9.57695 14.7154 8.21945C14.7154 6.11945 15.8979 4.93945 17.9979 4.93945C20.0979 4.93945 21.2829 6.12195 21.2829 8.22195ZM21.5754 17.827C21.161 17.827 20.7635 17.9916 20.4705 18.2846C20.1775 18.5776 20.0129 18.9751 20.0129 19.3895V20.4545C20.0129 20.8689 20.1775 21.2663 20.4705 21.5593C20.7635 21.8523 21.161 22.017 21.5754 22.017C21.9898 22.017 22.3872 21.8523 22.6802 21.5593C22.9732 21.2663 23.1379 20.8689 23.1379 20.4545V19.3895C23.1379 18.9751 22.9732 18.5776 22.6802 18.2846C22.3872 17.9916 21.9898 17.827 21.5754 17.827ZM14.4229 17.827C14.0085 17.827 13.611 17.9916 13.318 18.2846C13.025 18.5776 12.8604 18.9751 12.8604 19.3895V20.4545C12.8604 20.8689 13.025 21.2663 13.318 21.5593C13.611 21.8523 14.0085 22.017 14.4229 22.017C14.8373 22.017 15.2347 21.8523 15.5277 21.5593C15.8207 21.2663 15.9854 20.8689 15.9854 20.4545V19.3895C15.9854 19.1843 15.9449 18.9811 15.8664 18.7915C15.7879 18.6019 15.6728 18.4297 15.5277 18.2846C15.3826 18.1395 15.2104 18.0244 15.0208 17.9459C14.8312 17.8674 14.628 17.827 14.4229 17.827Z" fill="#2859C5"/>
</svg>
