<svg width="29" height="27" viewBox="0 0 29 27" fill="none" xmlns="http://www.w3.org/2000/svg">
<path d="M5.00572 19.25H3.41912C2.99833 19.25 2.59477 19.0985 2.29722 18.829C1.99968 18.5594 1.83252 18.1937 1.83252 17.8125V3.4375C1.83252 3.05625 1.99968 2.69062 2.29722 2.42103C2.59477 2.15145 2.99833 2 3.41912 2H19.2851C19.7059 2 20.1095 2.15145 20.407 2.42103C20.7046 2.69062 20.8717 3.05625 20.8717 3.4375V4.875M9.76553 25H25.6316C26.0523 25 26.4559 24.8485 26.7535 24.579C27.051 24.3094 27.2182 23.9437 27.2182 23.5625V9.1875C27.2182 8.80625 27.051 8.44062 26.7535 8.17103C26.4559 7.90145 26.0523 7.75 25.6316 7.75H9.76553C9.34474 7.75 8.94118 7.90145 8.64363 8.17103C8.34609 8.44062 8.17893 8.80625 8.17893 9.1875V23.5625C8.17893 23.9437 8.34609 24.3094 8.64363 24.579C8.94118 24.8485 9.34474 25 9.76553 25Z" stroke="#0090FB" stroke-width="3" stroke-linejoin="round"/>
</svg>
