<svg width="27" height="27" viewBox="0 0 27 27" fill="none" xmlns="http://www.w3.org/2000/svg">
<path fill-rule="evenodd" clip-rule="evenodd" d="M20.24 6.76166L6.07397 11.8838L10.7933 14.6153L14.9547 10.4528C15.1658 10.2418 15.4521 10.1234 15.7505 10.1235C16.0489 10.1236 16.3351 10.2422 16.546 10.4533C16.757 10.6644 16.8754 10.9507 16.8753 11.2491C16.8752 11.5475 16.7566 11.8337 16.5455 12.0447L12.383 16.2072L15.1167 20.9254L20.24 6.76166ZM20.6033 4.23716C21.9477 3.75003 23.2505 5.05278 22.7633 6.39716L16.8211 22.8278C16.3328 24.1755 14.4923 24.3398 13.7735 23.0989L10.1543 16.8462L3.90159 13.227C2.66072 12.5082 2.82497 10.6677 4.17272 10.1794L20.6033 4.23716Z" fill="white"/>
</svg>
